<?xml version="1.0" encoding="utf-8"?>
<!-- Generator: Adobe Illustrator 28.0.0, SVG Export Plug-In . SVG Version: 6.00 Build 0)  -->
<svg version="1.1" id="Layer_1" xmlns="http://www.w3.org/2000/svg" xmlns:xlink="http://www.w3.org/1999/xlink" x="0px" y="0px"
	 viewBox="0 0 385.1 85.1" style="enable-background:new 0 0 385.1 85.1;" xml:space="preserve">
<style type="text/css">
	.st0{fill:#006C66;}
	.st1{fill:#00B1EA;}
	.st2{fill:#C6D325;}
</style>
<g>
	<path class="st0" d="M226.3,37.4h-3.9c-1.5,0-2.7-1.2-2.7-2.6c0,0,0,0,0,0V24c0-1.5,1.2-2.6,2.7-2.6h3.1c0.4,0,0.7,0.3,0.7,0.6
		c0,0,0,0,0,0v0.3c0,0.4-0.3,0.7-0.7,0.7c0,0,0,0,0,0h-2.7c-0.7,0-1.3,0.6-1.3,1.3v10c-0.1,0.7,0.5,1.4,1.2,1.5c0,0,0.1,0,0.1,0h3.5
		c0.4,0,0.7,0.3,0.7,0.6c0,0,0,0,0,0v0.2C227,37,226.7,37.3,226.3,37.4C226.3,37.4,226.3,37.4,226.3,37.4z M233.9,37.4h-2.2
		c-1.5,0-2.6-1.2-2.6-2.6c0,0,0,0,0,0v-5.9c0-1.5,1.3-2.6,2.7-2.6h2c1.5,0,2.7,1.1,2.7,2.6v5.9C236.5,36.2,235.3,37.3,233.9,37.4
		C233.9,37.3,233.9,37.4,233.9,37.4z M234.8,29.1c0-0.7-0.6-1.3-1.3-1.3h-1.4c-0.7,0-1.3,0.6-1.3,1.3c0,0,0,0,0,0v5.4
		c0,0.7,0.5,1.3,1.2,1.3c0,0,0,0,0,0h1.4c0.7,0,1.3-0.6,1.3-1.3c0,0,0,0,0,0L234.8,29.1z M250.4,37.4h-0.3c-0.4,0-0.7-0.3-0.7-0.7
		c0,0,0,0,0,0V29c0-0.7-0.6-1.2-1.2-1.2h-0.8c-0.7,0-1.2,0.5-1.2,1.2c0,0,0,0,0,0v7.7c0,0.4-0.3,0.7-0.7,0.7c0,0,0,0,0,0h-0.3
		c-0.4,0-0.7-0.3-0.7-0.7c0,0,0,0,0,0V29c0-0.7-0.5-1.2-1.2-1.2h-0.8c-0.7,0-1.2,0.5-1.2,1.2c0,0,0,0,0,0v7.7c0,0.4-0.3,0.7-0.7,0.7
		c0,0,0,0,0,0h-0.3c-0.4,0-0.7-0.3-0.7-0.7c0,0,0,0,0,0v-9.9c0-0.3,0.2-0.6,0.6-0.6c0,0,0,0,0.1,0h0.3c0.2,0,0.4,0.2,0.4,0.3
		l0.2,0.4c0.1,0.2,0.2,0.3,0.4,0.3c0.5,0,0.9-1.1,2.2-1.1h0.3c0.5,0,1.1,0.2,1.5,0.6c0.3,0.3,0.5,0.5,0.9,0.5c0.8,0,1.1-1.1,2.4-1.1
		h0.4c1.3,0,2.3,1.1,2.3,2.4c0,0.1,0,0.1,0,0.2v8C251.1,37,250.8,37.4,250.4,37.4C250.4,37.4,250.4,37.4,250.4,37.4z M258.9,37.4
		h-0.4c-1.4,0-1.9-1-2.5-1c-0.2,0-0.3,0.2-0.3,0.4v5c0,0.4-0.3,0.7-0.7,0.7h-0.3c-0.4,0-0.7-0.3-0.7-0.7c0,0,0,0,0,0V26.8
		c0-0.3,0.2-0.6,0.5-0.6c0,0,0,0,0,0h0.3c0.2,0,0.4,0.1,0.5,0.3l0.3,0.5c0.1,0.1,0.2,0.2,0.4,0.2c0.6,0,1.2-1.1,2.5-1.1h0.4
		c1.4,0,2.6,1.2,2.6,2.6c0,0,0,0.1,0,0.1v6C261.5,36.2,260.3,37.4,258.9,37.4z M259.7,29.3c0-0.8-0.6-1.5-1.4-1.5c0,0,0,0,0,0h-1
		c-0.8,0-1.5,0.7-1.5,1.5c0,0,0,0,0,0v5.1c0,0.8,0.7,1.5,1.5,1.5c0,0,0,0,0,0h1c0.8,0,1.5-0.7,1.5-1.5V29.3z M270.8,37.4h-0.4
		c-0.2,0-0.4-0.1-0.5-0.3l-0.2-0.4c-0.1-0.1-0.2-0.2-0.4-0.2c-0.6,0-1.1,1-2.5,1h-0.4c-1.5,0-2.6-1.2-2.6-2.7V33
		c0-1.4,1.1-2.6,2.5-2.7c0,0,0.1,0,0.1,0h0.4c1.3,0,1.9,1.1,2.5,1.1c0.2,0,0.3-0.2,0.3-0.4v-1.7c0.1-0.8-0.5-1.4-1.3-1.5
		c-0.1,0-0.2,0-0.3,0h-2.7c-0.4,0-0.7-0.2-0.7-0.6c0,0,0,0,0-0.1v-0.3c0-0.4,0.3-0.7,0.7-0.7c0,0,0,0,0.1,0h3.3
		c1.4,0,2.6,1.1,2.7,2.6v8C271.3,37.1,271.1,37.3,270.8,37.4L270.8,37.4z M269.6,33.4c0-0.8-0.7-1.5-1.5-1.5l0,0h-1
		c-0.8,0-1.5,0.7-1.5,1.5c0,0,0,0,0,0v0.9c0,0.8,0.7,1.5,1.5,1.5l0,0h1c0.8,0,1.5-0.7,1.5-1.5c0,0,0,0,0,0L269.6,33.4z M279.9,27.7
		h-2.6c-0.8,0-1.4,0.6-1.4,1.4c0,0,0,0.1,0,0.1v7.4c0,0.4-0.3,0.7-0.7,0.7c0,0,0,0,0,0h-0.3c-0.4,0-0.7-0.3-0.7-0.7c0,0,0,0,0,0
		v-9.9c0-0.3,0.2-0.6,0.5-0.6c0,0,0.1,0,0.1,0h0.3c0.2,0,0.4,0.2,0.5,0.3l0.2,0.4c0.1,0.2,0.2,0.3,0.4,0.3c0.6,0,1.1-1,2.5-1h1.2
		c0.4,0,0.7,0.2,0.7,0.6c0,0,0,0,0,0.1v0.3C280.6,27.5,280.3,27.8,279.9,27.7C279.9,27.8,279.9,27.8,279.9,27.7L279.9,27.7z
		 M288.5,37.3h-0.4c-0.2,0-0.4-0.1-0.5-0.3l-0.2-0.4c-0.1-0.1-0.2-0.2-0.4-0.2c-0.6,0-1.1,1-2.5,1h-0.4c-1.4,0-2.6-1.2-2.6-2.7V33
		c0-1.4,1.1-2.6,2.5-2.7c0,0,0.1,0,0.1,0h0.4c1.3,0,1.9,1.1,2.5,1.1c0.2,0,0.3-0.2,0.3-0.4v-1.7c0.1-0.8-0.5-1.4-1.3-1.5
		c-0.1,0-0.2,0-0.3,0H283c-0.4,0-0.7-0.2-0.7-0.6c0,0,0,0,0-0.1v-0.3c0-0.4,0.3-0.7,0.7-0.7c0,0,0,0,0.1,0h3.3
		c1.4,0,2.6,1.1,2.7,2.6v8C289,37.1,288.8,37.3,288.5,37.3L288.5,37.3z M287.3,33.3c0-0.8-0.7-1.5-1.5-1.5l0,0h-1
		c-0.8,0-1.5,0.7-1.5,1.5c0,0,0,0,0,0v0.9c0,0.8,0.7,1.5,1.5,1.5l0,0h1c0.8,0,1.5-0.7,1.5-1.5c0,0,0,0,0,0V33.3z M297.3,27.7h-2.5v9
		c0,0.4-0.3,0.7-0.7,0.7l0,0h-0.3c-0.4,0-0.7-0.3-0.7-0.7c0,0,0,0,0,0v-8.9h-1.3c-0.4,0-0.7-0.2-0.7-0.6c0,0,0,0,0-0.1v-0.3
		c0-0.4,0.3-0.7,0.7-0.7c0,0,0,0,0.1,0h1.3v-4c0-0.4,0.3-0.7,0.7-0.7c0,0,0,0,0,0h0.3c0.4,0,0.7,0.3,0.7,0.7c0,0,0,0,0,0v4h2.5
		c0.4,0,0.7,0.2,0.7,0.6c0,0,0,0,0,0.1v0.3C298,27.5,297.7,27.8,297.3,27.7C297.3,27.8,297.3,27.8,297.3,27.7L297.3,27.7z
		 M301.1,24.1h-0.3c-0.4,0-0.7-0.3-0.7-0.7c0,0,0,0,0,0v-1.3c0-0.4,0.3-0.7,0.7-0.7c0,0,0,0,0,0h0.3c0.4,0,0.7,0.3,0.7,0.7v1.3
		C301.8,23.7,301.5,24.1,301.1,24.1C301.1,24.1,301.1,24.1,301.1,24.1L301.1,24.1z M301.1,37.3h-0.3c-0.4,0-0.7-0.3-0.7-0.7
		c0,0,0,0,0,0v-9.7c0-0.4,0.3-0.7,0.7-0.7c0,0,0,0,0,0h0.3c0.4,0,0.7,0.3,0.7,0.7v9.8C301.8,37,301.5,37.3,301.1,37.3L301.1,37.3z
		 M313,27.1l-3,9.5c-0.1,0.4-0.5,0.7-1,0.7h-0.5c-0.5,0-0.9-0.3-1-0.7l-3.1-9.4c0-0.1,0-0.2,0-0.3c0-0.3,0.2-0.6,0.5-0.6l0.3-0.1
		c0.4-0.2,0.8,0,1,0.3c0,0,0,0,0,0.1l1.9,6.7c0.2,0.9,0.4,1.7,0.6,2.6l0,0c0.1-0.9,0.3-1.7,0.6-2.6l1.9-6.7c0.1-0.4,0.5-0.6,0.9-0.4
		c0,0,0.1,0,0.1,0l0.3,0.1c0.3,0.1,0.5,0.3,0.5,0.6C313.1,27.1,313,27.1,313,27.1L313,27.1z M321.2,32.4h-4.3v1.9
		c-0.1,0.7,0.5,1.4,1.2,1.4c0.1,0,0.2,0,0.3,0h2.4c0.4,0,0.7,0.2,0.7,0.6c0,0,0,0,0,0.1v0.3c0,0.4-0.3,0.7-0.6,0.7c0,0,0,0-0.1,0
		h-3.2c-1.4-0.1-2.5-1.2-2.5-2.7v-5.9c0-1.5,1.3-2.6,2.7-2.6h2c1.5,0,2.7,1.1,2.7,2.6v2.3c0.1,0.7-0.4,1.3-1.1,1.4
		C321.3,32.5,321.3,32.5,321.2,32.4L321.2,32.4z M320.8,29c0-0.7-0.6-1.3-1.3-1.3h-1.4c-0.7,0-1.3,0.6-1.3,1.3v2h4L320.8,29z
		 M226.3,61.5h-3.9c-1.5,0-2.6-1.1-2.7-2.6c0,0,0,0,0,0V48.2c0-1.4,1.2-2.6,2.7-2.6h3.1c0.4,0,0.7,0.3,0.7,0.6c0,0,0,0,0,0v0.3
		c0,0.4-0.3,0.7-0.7,0.7c0,0,0,0,0,0h-2.7c-0.7,0-1.3,0.6-1.3,1.3v9.9c-0.1,0.7,0.4,1.4,1.2,1.5c0,0,0.1,0,0.1,0h3.4
		c0.4,0,0.7,0.3,0.7,0.6c0,0,0,0,0,0v0.3C227,61.3,226.6,61.5,226.3,61.5C226.3,61.5,226.3,61.5,226.3,61.5z M235.9,61.5h-0.4
		c-0.2,0-0.4-0.1-0.5-0.3l-0.2-0.4c-0.1-0.1-0.2-0.2-0.4-0.2c-0.6,0-1.1,1-2.5,1h-0.3c-1.4,0-2.6-1.2-2.6-2.7v-7.8
		c0-0.4,0.3-0.7,0.7-0.7c0,0,0,0,0,0h0.3c0.4,0,0.7,0.3,0.7,0.7v7.4c0,0.8,0.6,1.5,1.5,1.5c0,0,0,0,0,0h1c0.8,0,1.5-0.7,1.5-1.5
		c0,0,0,0,0,0v-7.4c0-0.4,0.3-0.7,0.7-0.7c0,0,0,0,0,0h0.3c0.4,0,0.7,0.3,0.7,0.7v9.8C236.5,61.2,236.2,61.5,235.9,61.5
		C235.9,61.5,235.9,61.5,235.9,61.5z M241,61.5h-0.3c-0.4,0-0.7-0.3-0.7-0.7c0,0,0,0,0,0V46.3c0-0.4,0.3-0.7,0.7-0.7h0.3
		c0.4,0,0.7,0.3,0.7,0.7v14.5C241.7,61.2,241.4,61.5,241,61.5C241,61.5,241,61.5,241,61.5z M250.5,52h-2.5v8.9
		c0,0.4-0.3,0.7-0.7,0.7l0,0H247c-0.4,0-0.7-0.3-0.7-0.7c0,0,0,0,0,0V52H245c-0.4,0-0.7-0.3-0.7-0.6c0,0,0,0,0,0V51
		c0-0.4,0.3-0.7,0.7-0.7c0,0,0,0,0,0h1.4v-4c0-0.4,0.3-0.7,0.7-0.7c0,0,0,0,0,0h0.3c0.4,0,0.7,0.3,0.7,0.7c0,0,0,0,0,0v4h2.5
		c0.4,0,0.7,0.2,0.7,0.6c0,0,0,0,0,0.1v0.3C251.2,51.7,250.9,52,250.5,52C250.6,52,250.5,52,250.5,52z M259.5,61.5h-0.4
		c-0.2,0-0.4-0.1-0.5-0.3l-0.2-0.4c-0.1-0.1-0.2-0.2-0.4-0.2c-0.6,0-1.1,1-2.5,1h-0.4c-1.4,0-2.5-1.2-2.6-2.6v-7.8
		c0-0.4,0.3-0.7,0.7-0.7c0,0,0,0,0,0h0.3c0.4,0,0.7,0.3,0.7,0.7v7.4c0,0.8,0.7,1.5,1.5,1.5l0,0h1c0.8,0,1.5-0.7,1.5-1.5c0,0,0,0,0,0
		v-7.4c0-0.4,0.3-0.7,0.7-0.7c0,0,0,0,0,0h0.3c0.4,0,0.7,0.3,0.7,0.7c0,0,0,0,0,0v9.8C260.1,61.2,259.9,61.5,259.5,61.5L259.5,61.5z
		 M268.6,52h-2.6c-0.8,0-1.4,0.6-1.4,1.4c0,0,0,0.1,0,0.1v7.4c0,0.4-0.3,0.7-0.7,0.7c0,0,0,0,0,0h-0.3c-0.4,0-0.7-0.3-0.7-0.7
		c0,0,0,0,0,0V51c0-0.3,0.2-0.6,0.5-0.6c0,0,0.1,0,0.1,0h0.3c0.2,0,0.4,0.2,0.4,0.3l0.2,0.4c0.1,0.2,0.2,0.3,0.4,0.3
		c0.6,0,1.1-1,2.4-1h1.2c0.4,0,0.7,0.2,0.7,0.6c0,0,0,0,0,0.1v0.3C269.3,51.7,269,52,268.6,52C268.7,52,268.7,52,268.6,52z
		 M277.2,61.5h-0.4c-0.2,0-0.4-0.1-0.5-0.3l-0.2-0.4c-0.1-0.1-0.2-0.2-0.4-0.2c-0.6,0-1.1,1-2.5,1h-0.4c-1.4,0-2.6-1.2-2.6-2.7v-1.8
		c0-1.4,1.1-2.6,2.5-2.7c0,0,0.1,0,0.1,0h0.4c1.3,0,1.9,1.1,2.5,1.1c0.2,0,0.3-0.2,0.3-0.4v-1.7c0.1-0.8-0.5-1.4-1.2-1.5
		c-0.1,0-0.2,0-0.3,0h-2.7c-0.4,0-0.7-0.2-0.7-0.6c0,0,0,0,0-0.1V51c0-0.4,0.3-0.7,0.7-0.7c0,0,0,0,0.1,0h3.3c1.4,0,2.6,1.1,2.7,2.6
		v8C277.7,61.2,277.5,61.5,277.2,61.5L277.2,61.5z M276,57.5c0-0.8-0.7-1.5-1.5-1.5l0,0h-1c-0.8,0-1.5,0.6-1.5,1.5c0,0,0,0,0,0v0.9
		c0,0.8,0.6,1.5,1.5,1.5c0,0,0,0,0,0h1c0.8,0,1.5-0.7,1.5-1.5c0,0,0,0,0,0V57.5z M282.2,61.5h-0.3c-0.4,0-0.7-0.3-0.7-0.7
		c0,0,0,0,0,0V46.3c0-0.4,0.3-0.7,0.7-0.7c0,0,0,0,0,0h0.3c0.4,0,0.7,0.3,0.7,0.7v14.5C282.9,61.2,282.6,61.5,282.2,61.5L282.2,61.5
		z M296.3,54.4h-3v6.4c0,0.4-0.3,0.7-0.7,0.7c0,0,0,0,0,0h-0.3c-0.4,0-0.7-0.3-0.7-0.7c0,0,0,0,0,0V46.2c0-0.3,0.2-0.6,0.5-0.6
		c0,0,0,0,0,0h0.3c0.2,0,0.4,0.1,0.5,0.3l0.3,0.5c0.1,0.2,0.2,0.3,0.4,0.2c0.6,0,1.1-1.1,2.5-1.1h0.4c1.4,0,2.6,1.2,2.6,2.6
		c0,0,0,0,0,0.1v3.4C299,53.2,297.8,54.3,296.3,54.4L296.3,54.4z M297.3,48.5c0-0.7-0.5-1.3-1.2-1.3c0,0,0,0,0,0h-1.4
		c-0.7,0-1.3,0.6-1.3,1.3v4.3h2.6c0.7,0,1.4-0.6,1.4-1.3L297.3,48.5z M305.7,61.5h-4c-0.4,0-0.7-0.2-0.7-0.6c0,0,0,0,0-0.1v-0.3
		c0-0.4,0.3-0.7,0.7-0.7c0,0,0,0,0,0h3.6c0.8,0,1-0.8,1-1.3v-0.9c0-0.6-0.4-1-1-1h-2c-1.3,0-2.3-1-2.3-2.3c0,0,0,0,0,0v-1.5
		c0.1-1.4,1.3-2.5,2.7-2.4h3c0.4,0,0.7,0.2,0.7,0.6c0,0,0,0,0,0.1v0.3c0,0.4-0.3,0.7-0.7,0.7c0,0,0,0-0.1,0h-2.6
		c-0.6-0.1-1.2,0.4-1.3,1c0,0.1,0,0.1,0,0.2V54c0,0.7,0.6,1.2,1.3,1.2c0,0,0,0,0,0h1.9c1.1-0.1,2,0.8,2.1,1.9c0,0.1,0,0.2,0,0.2v1.6
		c0.1,1.3-0.8,2.5-2.1,2.6C305.9,61.5,305.8,61.5,305.7,61.5L305.7,61.5z M319.1,51.4l-5.4,14.9c-0.1,0.3-0.4,0.6-0.7,0.5
		c-0.1,0-0.2-0.1-0.3-0.1l-0.2-0.1c-0.2-0.1-0.3-0.3-0.3-0.5c0-0.1,0-0.2,0-0.3l1.5-4.1c-0.1,0-0.3-0.3-0.3-0.4l-3.5-9.7
		c0-0.1,0-0.2,0-0.2c0-0.3,0.2-0.5,0.5-0.6l0.4-0.1c0.3-0.1,0.7,0,0.9,0.3c0,0,0,0,0,0.1l3,8.5l3-8.5c0.1-0.3,0.5-0.5,0.8-0.4
		c0,0,0,0,0,0l0.4,0.2c0.3,0.1,0.4,0.3,0.4,0.6C319.1,51.2,319.1,51.3,319.1,51.4L319.1,51.4z M327,61.5h-3.2
		c-1.5,0-2.6-1.2-2.6-2.7c0,0,0,0,0,0V53c0-1.5,1.2-2.6,2.7-2.6h2.9c0.4,0,0.7,0.2,0.7,0.6c0,0,0,0,0,0.1v0.3c0,0.4-0.3,0.7-0.7,0.7
		c0,0,0,0-0.1,0h-2.2c-0.7-0.1-1.4,0.4-1.5,1.2c0,0.1,0,0.2,0,0.4v5c0,1.1,0.7,1.5,1.6,1.5h2.5c0.4,0,0.7,0.2,0.7,0.6c0,0,0,0,0,0
		v0.3C327.7,61.2,327.4,61.5,327,61.5C327,61.5,327,61.5,327,61.5L327,61.5z M336.3,61.5H336c-0.4,0-0.7-0.3-0.7-0.7c0,0,0,0,0,0
		v-7.4c0-0.8-0.6-1.5-1.5-1.5c0,0,0,0,0,0h-1c-0.8,0-1.5,0.6-1.5,1.4c0,0,0,0,0,0v7.4c0,0.4-0.3,0.7-0.7,0.7c0,0,0,0,0,0h-0.3
		c-0.4,0-0.7-0.3-0.7-0.7c0,0,0,0,0,0V46.3c0-0.4,0.3-0.7,0.7-0.7c0,0,0,0,0,0h0.4c0.4,0,0.7,0.3,0.7,0.7V51c0,0.2,0.1,0.4,0.3,0.4
		c0.6,0,1.1-1.1,2.5-1.1h0.4c1.4,0,2.6,1.2,2.6,2.6c0,0,0,0,0,0.1v7.8C337.1,61.2,336.8,61.5,336.3,61.5
		C336.4,61.5,336.4,61.5,336.3,61.5L336.3,61.5z M344.7,61.5h-2.2c-1.4,0-2.6-1.2-2.6-2.6c0,0,0,0,0,0V53c0-1.5,1.2-2.6,2.7-2.6h2.1
		c1.5,0,2.7,1.1,2.7,2.6v5.9C347.4,60.3,346.2,61.5,344.7,61.5L344.7,61.5z M345.6,53.2c0-0.7-0.6-1.3-1.3-1.3c0,0,0,0,0,0h-1.4
		c-0.7,0-1.3,0.6-1.3,1.3c0,0,0,0,0,0v5.4c0,0.7,0.5,1.3,1.2,1.3c0,0,0,0,0,0h1.4c0.7,0,1.3-0.5,1.3-1.2c0,0,0,0,0-0.1L345.6,53.2z
		 M351.9,61.5h-0.3c-0.4,0-0.7-0.3-0.7-0.7c0,0,0,0,0,0V46.3c0-0.4,0.3-0.7,0.7-0.7c0,0,0,0,0,0h0.3c0.4,0,0.7,0.3,0.7,0.7
		c0,0,0,0,0,0v14.5C352.6,61.2,352.2,61.5,351.9,61.5L351.9,61.5z M360.9,61.5h-2.2c-1.4,0-2.6-1.2-2.6-2.6c0,0,0,0,0,0V53
		c0-1.5,1.2-2.6,2.7-2.6h2c1.5,0,2.7,1.1,2.7,2.6v5.9C363.4,60.3,362.3,61.5,360.9,61.5L360.9,61.5z M361.7,53.2
		c0-0.7-0.6-1.3-1.3-1.3c0,0,0,0,0,0H359c-0.7,0-1.3,0.6-1.3,1.3c0,0,0,0,0,0v5.4c0,0.7,0.5,1.3,1.2,1.3c0,0,0,0,0,0h1.4
		c0.7,0,1.3-0.6,1.3-1.3c0,0,0,0,0,0V53.2z M371.2,66.7h-2.9c-0.4,0-0.7-0.2-0.7-0.6c0,0,0,0,0-0.1v-0.2c0-0.4,0.3-0.7,0.7-0.7
		c0,0,0,0,0.1,0h2.2c0.7,0.1,1.4-0.4,1.5-1.2c0-0.1,0-0.2,0-0.3V61c0-0.2-0.1-0.4-0.3-0.4c-0.5,0-1,1-2.5,1H369
		c-1.4,0-2.6-1.2-2.6-2.7v-6c0-1.4,1.1-2.6,2.5-2.7c0,0,0,0,0.1,0h0.4c1.3,0,1.9,1.1,2.5,1.1c0.2,0,0.3-0.1,0.4-0.2l0.3-0.5
		c0.1-0.2,0.3-0.3,0.5-0.3h0.3c0.3,0,0.5,0.3,0.5,0.6c0,0,0,0,0,0v13.2C373.8,65.5,372.6,66.6,371.2,66.7z M372.1,53.4
		c0-0.8-0.6-1.5-1.5-1.5c0,0,0,0,0,0h-1c-0.8,0-1.5,0.7-1.5,1.5c0,0,0,0,0,0v5c0,0.8,0.7,1.5,1.5,1.5h1c0.8,0,1.5-0.6,1.5-1.4
		c0,0,0,0,0,0V53.4z M385.1,51.3l-5.4,14.9c-0.1,0.3-0.4,0.6-0.7,0.5c-0.1,0-0.2-0.1-0.3-0.1l-0.3-0.1c-0.2-0.1-0.3-0.3-0.3-0.5
		c0-0.1,0-0.2,0-0.3l1.5-4.1c-0.1,0-0.3-0.3-0.3-0.4l-3.5-9.7c0-0.1,0-0.2,0-0.2c0-0.3,0.2-0.5,0.5-0.6l0.4-0.1
		c0.3-0.1,0.7,0,0.9,0.3c0,0,0,0,0,0.1l3,8.5l3-8.5c0.1-0.3,0.5-0.5,0.8-0.4c0,0,0,0,0,0l0.4,0.2c0.3,0.1,0.4,0.3,0.4,0.6
		C385.1,51.2,385.1,51.3,385.1,51.3L385.1,51.3z"/>
	<g>
		<path class="st0" d="M132.9,37.9c0.2-1.3,1.3-2.2,2.6-2c0,0,0,0,0.1,0c1,0.1,1.7,1,1.6,1.9c0,0.1,0,0.3-0.1,0.4
			c-0.3,1.1-1.2,1.9-2.4,1.9C132.6,40.3,132.6,39,132.9,37.9z M119.7,29.4c1,0.6,2.5,1,2.9-0.1s0.8-2.1-1.4-3.9
			c-0.9-0.8-2.3,0.2-2.7,1.2S118.1,28.4,119.7,29.4z M187.6,44.7c-1.7-1.9-2.3-2.2-3-1.2s-0.5,3.9,0.4,4.6c0.9,0.7,2.3,0.5,3-0.4
			c0,0,0,0,0,0C188.7,46.7,188.5,45.4,187.6,44.7z M187.7,54.6c-2.8,7.4-8,13.5-14.8,17.4c-1.6,0.9-3.3,1.7-5,2.4c0,0-3,1.1-3.4,5.8
			c-0.3,4.1,2.2,3.5,2.2,3.5c-22.7,6-46-7.5-52-30.2c-1.9-7.2-1.9-14.8,0-22c0,0,0.8-2.5,4.2-0.2c3.9,2.6,3.3,5.8,3.3,5.8
			c-0.3,1.8-0.4,3.7-0.4,5.5c0,7.9,2.7,15.5,7.7,21.5c1,1,2.3,1.4,5.6,0.2c4.2-1.6,1.4-5,1.4-5c-2.6-3-4.5-6.6-5.5-10.4
			c-0.6-2.3-0.5-6.3,2.1-7c2.3-0.6,5.2,1.6,6.2,5c0.4,1.5,1,2.9,1.8,4.2c1.2,1.9,3.3,2.6,6.2,1.5s2.3-3.8,1.1-5.8
			c-1.2-2-0.6-4.7,1.4-5.9c0,0,0.1,0,0.1-0.1c2-1.2,4.6-0.5,5.8,1.6c0,0,0,0,0,0l0,0c-1.2,2-0.5,4.6,1.5,5.8c0,0,0,0,0,0
			c2,1.2,4.7,0.5,5.8-1.5c0,0,0-0.1,0.1-0.1c1.1-2,3.3-3.8,5.6-1.9s2.9,4.2,1.8,6.2c-0.8,1.3-1.7,2.6-2.8,3.7
			c-2.5,2.5-2.9,6.2-1.3,7.9c1.9,1.9,5.5,0,7.1-1.7c2.8-2.8,5-6.2,6.3-9.9c0,0,1.6-4.1,5-1.2C187.8,51.9,188.1,53.2,187.7,54.6
			L187.7,54.6z M140.7,67c-0.5-1.1-3.1-2.4-4.2-1.9c-1.1,0.5-1.6,1.7-1.1,2.8c0.5,1,1.7,1.5,2.8,1.1C140.7,68.4,141.2,68.1,140.7,67
			L140.7,67z M162.6,80.5c0.1-1.2-0.4-2.7-1.5-2.5s-2.2,0.4-2.7,3.2c-0.2,1.2,1.3,1.9,2.5,1.7S162.5,82.3,162.6,80.5z M164.5,62.1
			c-0.6-1-1.7-1.4-2.8-1.1c-1,0.2-1.6,1.1-1.4,2.1c0,0.1,0.1,0.3,0.1,0.4c0.5,1.2,1.9,1.8,3.1,1.3c0,0,0,0,0,0
			C164.5,64.5,165.6,63.8,164.5,62.1L164.5,62.1z M167.3,51.7c0.9-0.8,1.9-2.1,1.7-3.2s-1.6-2.5-2.7-1.8c-1.1,0.8-1.8,2.2-1.7,3.6
			C164.9,51.4,166.2,52.7,167.3,51.7L167.3,51.7z M144.2,50.8c1.1,0.3,3-0.1,2.9-1.4c-0.2-1.4-1-2.6-2.3-3.2
			c-1.1-0.3-2.9,0.2-2.6,1.5C142.5,49,143.1,50.5,144.2,50.8L144.2,50.8z"/>
		<path class="st1" d="M186,12.5c0,0,1.8,1.9-1.9,3.7c-4.2,2.1-6.6,0-6.7,0c-1.4-1.2-2.9-2.2-4.5-3.1c-6.8-3.9-14.7-5.4-22.5-4.1
			c-1.4,0.4-2.4,1.3-3,4.8c-0.8,4.4,3.6,3.7,3.6,3.7c3.9-0.8,7.9-0.6,11.8,0.5c2.3,0.6,5.7,2.7,5,5.3c-0.6,2.3-4,3.7-7.4,2.8
			c-1.5-0.4-3-0.6-4.6-0.6c-2.3,0.1-3.9,1.6-4.4,4.7s2.1,3.9,4.4,3.8c2.4,0,4.3,1.8,4.4,4.2c0,0,0,0.1,0,0.1c0,2.3-1.9,4.2-4.2,4.2
			c0,0,0,0,0,0l0,0c-1.2,2-0.5,4.6,1.5,5.8c0,0,0,0,0,0c2,1.2,4.7,0.5,5.8-1.5c0,0,0-0.1,0.1-0.1c1.1-2,3.3-3.8,5.6-1.9
			s2.9,4.2,1.8,6.2c-0.8,1.3-1.7,2.6-2.8,3.7c-2.5,2.5-2.9,6.2-1.3,7.9c1.9,1.9,5.5,0,7.1-1.7c2.8-2.8,5-6.2,6.3-9.9
			c0,0,1.6-4.1,5-1.2c2.7,2.3,3,3.6,2.7,5c-2.8,7.4-8,13.5-14.8,17.4c-1.6,0.9-3.3,1.7-5,2.4c0,0-3,1-3.4,5.7
			c-0.3,4.1,2.2,3.5,2.2,3.5c22.7-6,36.2-29.3,30.2-52C195,24.5,191.2,17.9,186,12.5L186,12.5z M158.2,31.1
			c-1.2,0.8-2.6,0.9-3.9,0.3c-1.2-0.6-0.6-2.4,0.2-3.2s2.5-0.5,3.6-0.2C159.6,28.5,159.1,30.3,158.2,31.1z M171.8,28.2
			c-0.6,0.8-1.7,1-2.5,0.4c-0.1-0.1-0.2-0.2-0.3-0.3c-0.8-0.8-1-2-0.5-3c0.9-1.9,2-1.2,2.8-0.5C172.4,25.6,172.6,27.1,171.8,28.2
			C171.8,28.2,171.8,28.2,171.8,28.2z M185.4,17.8c1.7-0.9,2.2-0.6,3,0.3s0.8,2.6-0.3,3c-2.6,1-3.4,0.2-4.1-0.7
			S184.3,18.3,185.4,17.8z M188.1,47.7c-0.7,0.9-2,1.1-3,0.4c0,0,0,0,0,0c-0.9-0.7-1.1-3.7-0.4-4.6s1.3-0.7,3,1.2
			C188.5,45.4,188.7,46.7,188.1,47.7z M158.4,81.2c0.5-2.8,1.5-3,2.7-3.2s1.6,1.3,1.5,2.5c-0.1,1.9-0.6,2.2-1.7,2.4
			S158.2,82.3,158.4,81.2L158.4,81.2z M163.4,64.8c1.1-0.3,2.2-0.9,1-2.7c-0.6-0.9-1.7-1.4-2.8-1.1c-1,0.2-1.6,1.1-1.4,2.1
			c0,0.1,0.1,0.3,0.1,0.4C160.9,64.7,162.2,65.3,163.4,64.8L163.4,64.8z M167.3,51.8c0.9-0.8,1.9-2.1,1.7-3.2s-1.6-2.5-2.7-1.8
			c-1.1,0.8-1.7,2.1-1.6,3.5C164.9,51.4,166.2,52.7,167.3,51.8L167.3,51.8z M141.9,14c-0.8,2.5-0.7,3.1,0.4,3.2s3.6-1.5,3.8-2.7
			c0.2-1.2-0.7-2.2-1.8-2.4c0,0,0,0,0,0C143.1,12.1,142.1,12.8,141.9,14z"/>
		<path class="st2" d="M171.4,24.9c1,0.8,1.2,2.2,0.5,3.3c0,0,0,0-0.1,0.1c-0.6,0.8-1.7,1-2.5,0.4c-0.1-0.1-0.2-0.2-0.3-0.3
			c-0.8-0.8-1-2-0.5-3C169.5,23.5,170.6,24.1,171.4,24.9z M136.5,65c-1.1,0.5-1.6,1.7-1.1,2.8c0.5,1,1.7,1.5,2.8,1.1
			c2.5-0.5,3-0.9,2.6-2S137.6,64.6,136.5,65z M188.4,18c-0.7-0.9-1.3-1.2-3-0.3c-1,0.5-2.1,1.6-1.4,2.5s1.5,1.7,4.1,0.7
			C189.2,20.7,189.1,18.9,188.4,18z M184.1,16.2c-4.2,2.1-6.6,0-6.7,0c-1.4-1.2-2.9-2.2-4.5-3.1c-6.8-3.9-14.7-5.4-22.5-4.1
			c-1.4,0.4-2.4,1.3-3,4.8c-0.8,4.4,3.6,3.7,3.6,3.7c3.9-0.8,7.9-0.6,11.8,0.5c2.3,0.6,5.7,2.7,5,5.3c-0.6,2.3-4,3.7-7.4,2.8
			c-1.5-0.4-3-0.6-4.6-0.6c-2.3,0.1-3.9,1.6-4.4,4.7s2.1,3.9,4.4,3.8c2.4,0,4.3,1.8,4.4,4.2c0,0,0,0.1,0,0.1c0,2.3-1.9,4.2-4.2,4.2
			c0,0,0,0,0,0l0,0c-1.2-2-3.7-2.7-5.8-1.6c0,0,0,0,0,0c-2,1.2-2.7,3.9-1.5,5.9c0,0,0,0,0,0c1.2,2,1.7,4.8-1.1,5.8s-5.1,0.4-6.2-1.5
			c-0.8-1.3-1.4-2.8-1.8-4.2c-0.9-3.4-3.9-5.6-6.2-5c-2.6,0.7-2.7,4.7-2.1,7c1,3.8,2.8,7.4,5.4,10.4c0,0,2.7,3.4-1.4,5
			c-3.3,1.2-4.6,0.8-5.6-0.2c-5-6.1-7.7-13.7-7.7-21.5c0-1.8,0.2-3.7,0.4-5.5c0,0,0.6-3.1-3.3-5.8c-3.4-2.3-4.2,0.2-4.2,0.2
			C121,8.8,144.3-4.6,167,1.5c7.2,1.9,13.8,5.8,19,11.1l0,0C186,12.6,187.8,14.4,184.1,16.2L184.1,16.2z M121.2,25.4
			c-0.9-0.8-2.3,0.2-2.7,1.2s-0.3,1.7,1.2,2.7c1,0.6,2.5,1,2.9-0.1S123.4,27.2,121.2,25.4z M135.5,35.9c-1.3-0.2-2.5,0.7-2.7,1.9
			c0,0,0,0,0,0.1c-0.2,1.1-0.3,2.3,1.8,2.2c1.1,0,2.1-0.8,2.4-1.9c0.3-0.9-0.2-1.9-1.2-2.2C135.8,35.9,135.7,35.9,135.5,35.9z
			 M142.3,17.2c1.2,0.2,3.6-1.5,3.8-2.7c0.2-1.2-0.7-2.2-1.8-2.4c0,0,0,0,0,0c-1.1-0.1-2.1,0.7-2.4,1.8
			C141.1,16.4,141.2,17,142.3,17.2z M147.1,49.4c-0.2-1.4-1-2.6-2.3-3.2c-1.1-0.3-2.9,0.2-2.6,1.5c0.3,1.2,0.9,2.7,2,3.1
			S147.2,50.7,147.1,49.4L147.1,49.4z M154.5,28.2c-0.8,0.8-1.4,2.6-0.2,3.2c1.3,0.6,2.7,0.4,3.9-0.3c0.9-0.8,1.4-2.6,0-3
			C157,27.7,155.4,27.5,154.5,28.2z"/>
	</g>
	<rect x="98.8" class="st0" width="0.8" height="85"/>
	<path class="st0" d="M42.5,0C19,0,0,19,0,42.5s19,42.5,42.5,42.5S85,66,85,42.5c0,0,0,0,0,0C85,19.1,66,0,42.5,0z M42.5,83.9
		c-22.8,0-41.3-18.5-41.4-41.3c0-22.8,18.5-41.3,41.3-41.4c22.8,0,41.3,18.5,41.4,41.3c0,0,0,0,0,0C83.8,65.3,65.3,83.8,42.5,83.9z
		 M67.5,39.3c-0.6-1.2-0.2-2-0.4-2.9c-0.5-1.5-1.1-2.9-1.7-4.4c-0.3-0.7,1.5-0.5,0.2-3.1c0-0.1,1.9-0.8,0-2.2
		c-1-0.8-1.8-1.7-2.4-2.7c-0.1-0.2-0.1-0.4,0-0.5c1.1-1,1.1-2.3-0.1-3c-0.8-0.5-1.8,0-2.7,0.6c-0.3,0.2-0.4,0.3-0.7,0.2
		c-0.3-0.2-0.5-0.3-0.8-0.5c0.7-0.6,1.2-1.4,1.2-2.3c-1.4-0.4-2.8-0.2-4.1,0.4l-0.2-0.1c0.6-0.8,0.7-1.9,0.3-2.8l0,0
		c1.5-2,3.1-3.8,5-5.4l0,0c0.1-0.1,0.2-0.2-0.1-0.4s-0.2-0.1-0.4-0.2C42.6-0.2,19.8,6.4,9.8,24.5c-3.1,5.5-4.7,11.7-4.7,18
		c0.2,12.2,6.1,23.5,16,30.6c0.3,0.3,0.7,0.5,1.1,0.7c0.1,0.1,0.3,0,0.4-0.1l0.1-0.2c0.1-0.1,0.1-0.2,0.1-0.3c0-0.3-0.4-0.5-0.8-1.2
		c-1.2-1.8-1.9-3.9-1.9-6.1c0-2,0.6-3.9,1.8-5.5c1.5,1.6,4.7,4.4,4.7,7c-0.1,2.9-2.8,2.8-2.2,5c0.4,1.4,1.4,0.8,1.6,1.8
		c0.3,1.8,2.7,3,3.8,2.8c0.2,0,0.5,0.2,1,0.7c0.7,0.7,2.5,0.6,3.3,0.5s1.7,0.6,3.3,0.4c2-0.2,2.5-0.4,3.3-0.4
		c4.9-0.1,9.8,0.1,14.6,0.7c1,0.1,1.2-0.3,0.8-1c-1.9-3-2.3-6.7-1.1-10.1c2,0.1,4.9,0.7,8.8-1.6c1.3-0.8,2.1-2.3,2.1-3.8
		c-0.2-0.9-0.3-1.8-0.2-2.7c0.3-1.1,0.5-1.1,0.8-1.3c1.5-1,0.4-1.8,0.2-1.9c0.6-0.4,0.8-1.2,0.4-1.8c0,0,0,0,0,0
		c-0.3-0.3-1.1-2.5-0.1-3s2.1-0.7,3.3-1.2c0.9-0.4,1.4-1.5,1-2.4c0,0,0,0,0-0.1C70.6,46.3,67.6,39.5,67.5,39.3z M26.2,72.6
		c-0.3,0-1.2,0.1-1-1.1c0.1-0.7,0.9-1,1.3-0.6C26.5,71.4,26.3,71.9,26.2,72.6z M61.4,21.6c0.5-0.3,1-0.4,1.3-0.1
		c1.1,1-1.2,1.6-0.7,2.4c0.8,1.3,1.8,2.5,3,3.4c0.5,0.4,0.6,1.2-1.3,1.7s-9.6,2.4-13.6,6.7c-5,5.3-8.3,12.3-8.7,11.3
		s-1.4-1.1-1.3-1.4C47.4,33,58.8,23.2,61.4,21.6L61.4,21.6z M64.8,30.3c-0.4,1.2-3.7,2.2-3.6,1.4c0.1-0.4,0-0.9,0.3-0.9
		s1.4-0.4,3-0.8C64.7,29.9,64.9,30,64.8,30.3L64.8,30.3z M56.4,32.5c-0.1-0.5,3.4-1.7,3.6-1.3c0.2,0.7-0.7,2.4-1.9,2.8
		c-1.3,0.5-1.9,0.3-1.9,0.2C56.4,33.6,56.4,33.1,56.4,32.5L56.4,32.5z M48.2,51c-1.6,1-2.5-0.9-2.8-1.2c-0.3-0.4-0.3-0.8-0.2-1.3
		c0.2-1.3,0.1-2.5-0.2-3.8c-0.2-1.1,2-3.7,2.6-4.2s1.3,0.2,1.3,1c0.1,1.2-0.6,2.3-1.6,2.9c-1.1,0.8-1.2,1.8-1.1,2.1
		c0.1,0.1,0.6,0.1,0.8-0.3c0.6-1.3,2.4-2,2.7-2.7c0.3-0.7,0.3-1.5,0.1-2.3c0-0.4,0.3-0.5,0.7-0.5s0.6,0.6,0.8,1.1
		c1.2,3-1.8,4.9-2.2,5.6C48.8,47.7,49.5,50.2,48.2,51z M50.7,39.2c-0.9,0.6-2.1-0.2-1.9-0.6c1.3-1.8,2.8-3.3,4.7-4.5
		c1.4-0.9,1.5-0.9,1.6-0.4c0.1,1.1-0.3,2.2-1.1,3c-0.6,0.6-1.5,1-2.3,1C51.3,37.9,51.3,38.7,50.7,39.2z M42.8,49.6
		c-0.4-0.1-0.6-0.9-0.5-1.2c0.4-0.9,1-1.8,1.6-2.6c0.1-0.1,0.3,0,0.3,0.1C44.5,47.6,44.3,49.9,42.8,49.6L42.8,49.6z M55.8,19.6
		c0.9-0.4,2-0.6,3-0.7c0.3,0-0.7,2-2.7,2.8c-1.1,0.6-2.4,0.9-3.6,0.9C52.4,22.4,54.3,20.2,55.8,19.6L55.8,19.6z M22.1,51.2
		c-0.3-0.4-0.7-0.8-1.2-1c-0.7,1.1-1.2,2.3-1.4,3.6c-1.9-3.5-2.9-7.4-3-11.3c-0.6-14.3,11.4-25.9,26.1-25.9c3.1,0,6.2,0.7,9.1,1.9
		c-0.6,0.8-1.1,1.7-1.5,2.7c0-0.8-0.2-1.4-0.2-1.9c0-0.3-2.1,0.3-3.9,3.3c-0.4,0.7-0.7,1.4-0.9,2.2c0-0.7-0.1-1.4-0.4-2
		c-1.6,0.7-2.8,2-3.4,3.5c-0.2,0.4-0.3,0.9-0.4,1.4c0-0.5-0.1-0.9-0.4-1.3c-1.6,0.7-2.9,2-3.5,3.6c-0.2,0.6-0.4,1.2-0.4,1.9
		c-0.2-0.9-0.6-1.5-0.7-1.4c-0.8,1-2.3,1.4-3.1,3.9c-0.2,0.6-0.3,1.1-0.3,1.7c-0.3-0.8-0.8-1.3-0.9-1.3c-1.4,1.1-2.4,2.7-2.8,4.4
		c-0.1,0.8-0.1,1.6,0,2.3c-0.5-0.6-0.9-1.2-1.2-1.9c-1.4,1.1-2.2,2.6-2.3,4.3c0,0.8,0.1,1.7,0.3,2.5c-0.7-1.2-1.6-1.7-1.7-1.7
		c-1.2,1.2-1.9,2.8-2,4.5C21.9,50,22,50.6,22.1,51.2z M52.1,19c1.2-1.4,3.1-2.5,3.3-2.3s-0.3,2.2-1.6,3.5c-1,1-2.2,1.8-3.5,2.5
		C50.2,22.6,51.1,20.2,52.1,19z M48.4,24.2c-0.9,0.7-1.7,1.6-2.3,2.6c-0.2,0.4-0.8-2,0.7-4.3c0.7-1,1.6-1.9,2.6-2.5
		C49.3,20.6,50.3,22.7,48.4,24.2z M44.3,27.2c-1.4,2-1.4,1.3-3,3.3c-0.1-1.3,0-2.6,0.4-3.8c0.5-1.2,1.4-2.3,2.5-3
		C44.5,23.7,45.1,26.1,44.3,27.2L44.3,27.2z M39.8,31.3c-0.7,1.2-1.3,1-2.5,2.7c-0.1,0.2-0.4-1.4,0.3-3.7c0.4-1.2,1.3-2.2,2.4-2.8
		C40.2,27.5,40.7,29.9,39.8,31.3L39.8,31.3z M35.7,35.7c-0.7,1.6-1.2,1.6-2,2.6c-0.2,0.2-0.8-1.5-0.2-3.6c0.4-1.1,1.2-2.1,2.2-2.8
		C35.8,31.7,36.4,34,35.7,35.7z M32.2,38.3c0,0.4-0.1,0.8-0.2,1.2c-0.5,1.2-1.2,2.4-2.1,3.3c-0.4-0.7-0.6-1.5-0.7-2.4
		c0-1.7,0.8-3.4,2.1-4.5C31.7,36,32.2,37.3,32.2,38.3L32.2,38.3z M28.8,43.5c-0.1,1.7-0.8,3.3-2,4.4c-0.5-0.9-0.8-2-0.9-3.1
		c-0.2-1.5,0.3-3,1.4-4C27.5,41.7,28.8,42.2,28.8,43.5L28.8,43.5z M23.9,46.1c1.1,0.7,1.7,2,1.7,3.3c0,1.5-0.7,2.9-1.8,3.8
		c-0.4-1.4-1.1-1.8-1.1-3.2C22.7,48.6,23.1,47.2,23.9,46.1L23.9,46.1z M26.9,51.1c1.3-0.6,2.6-0.8,4-0.6c-0.3,1.4-1.2,2.6-2.4,3.3
		c-1.8,1-3.8,1.1-4,0.8C24.7,53.2,25.6,51.9,26.9,51.1L26.9,51.1z M26.7,49.8c0.5-1.5,1.5-2.7,2.9-3.4l0,0c1.2-0.5,2.5-0.7,3.8-0.6
		c0.2,0.1-0.7,2.3-2.4,3.1C29.1,49.8,28.4,49.2,26.7,49.8L26.7,49.8z M29.5,45c0.1-0.2,1.4-2.6,3-3.3c1.1-0.5,2.4-0.7,3.6-0.5
		c-0.4,1.3-1.3,2.4-2.5,3.1C31.8,45.1,29.4,45.2,29.5,45L29.5,45z M33.1,40.2c0.8-1.4,2-2.5,3.4-3.3c1.1-0.5,2.3-0.6,3.4-0.4
		c-0.4,1.3-1.3,2.4-2.6,3C36,40,34.5,40.2,33.1,40.2L33.1,40.2z M37.4,35.4c0.6-1.4,1.7-2.5,3-3.2c1.2-0.3,2.4-0.3,3.6,0
		c0.4,0-0.5,1.8-2.7,2.6C40.1,35.3,38.8,35.5,37.4,35.4L37.4,35.4z M42.3,30.8c0.8-1.3,1.9-2.3,3.3-3c1.2-0.4,2.5-0.4,3.7-0.1
		c0.2,0.1-1.1,2.1-3.1,2.7C44.9,30.8,43.6,30.9,42.3,30.8L42.3,30.8z M47.2,26.8c-0.2-0.2,1.7-2.3,3.3-2.9c1.1-0.4,2.2-0.5,3.3-0.4
		c-0.6,1.2-1.6,2.2-2.9,2.7C49.8,26.7,48.5,26.9,47.2,26.8L47.2,26.8z M20.3,71c-8.7-6.9-13.9-17.4-14-28.5
		c0-20,16.2-36.2,36.2-36.1c5.8,0,11.6,1.4,16.8,4.1c0.1,0,0.1,0.1,0,0.2c0,0,0,0,0,0c-1.5,1.4-2.9,3-4.1,4.6
		c-4-1.9-8.3-2.8-12.7-2.8c-16.6,0-30,13.4-30,30c-0.1,7.2,2.5,14.1,7.2,19.5c-0.5,1.2-0.8,2.5-0.8,3.8C19,67.7,19.5,69.5,20.3,71z
		 M20.4,61L20.4,61c-4.4-5.1-6.7-11.7-6.7-18.4c0-15.9,12.9-28.8,28.8-28.8c4.1,0,8.2,0.9,12,2.6c-0.6,0.3-1.1,0.6-1.7,1
		c-3.3-1.4-6.8-2.1-10.3-2.1c-15,0-27.2,12.2-27.2,27.2c-0.1,6.2,2,12.2,6,17L20.4,61z M21.8,58.7c-1-0.9-1.6-2.1-1.8-3.4V55
		c0-1.3,0.4-2.5,1-3.7c0.2-0.2,2.2,1.3,2.2,3.5C23.2,56.3,22.7,57.6,21.8,58.7z M25.1,55.7c1.2-0.5,2.5-0.7,3.8-0.5
		c-0.1,0.1-0.8,2.4-2.5,3.2c-1.1,0.6-2.3,0.8-3.6,0.5C23.7,58.1,23.5,56.5,25.1,55.7L25.1,55.7z M27.2,74.6c-0.3-1-0.2-2,0.2-2.9
		c0.7-0.3,2-0.5,2-0.1c-0.2,1.4-0.2,2.8,0.1,4.1C29.4,76,27.6,75.9,27.2,74.6L27.2,74.6z M27.3,70.1c-0.1-0.8,0.6-1.6,0.6-3.3
		c0-2.2-2.7-5.1-4.5-7c1.1,0,2.2-0.3,3.2-0.7c1.6-0.9,2.8-2.4,3.3-4.2c-0.5-0.2-1-0.2-1.5-0.2l0.3-0.2c1.7-0.9,2.9-2.6,3.2-4.5
		c-0.5-0.1-1.1-0.1-1.6-0.1c0.3-0.1,0.5-0.2,0.8-0.3c1.8-0.8,3.1-2.4,3.4-4.3c-0.5-0.1-0.9-0.2-1.4-0.2c0.3-0.1,0.5-0.2,0.8-0.3
		c1.7-0.8,2.9-2.4,3.3-4.2c-0.4-0.1-0.9-0.2-1.3-0.2c0.6-0.2,1.3-0.4,1.8-0.6c1.7-0.7,3-2.1,3.5-3.9c-0.4-0.1-0.8-0.2-1.2-0.2
		c0.6-0.1,1.2-0.3,1.8-0.5c1.7-0.5,3-1.8,3.6-3.5c-0.4,0-0.9-0.2-1.5-0.3c0.9-0.1,1.8-0.2,2.7-0.5c2.9-1,3.9-2.7,4-3.5
		c-0.3-0.2-0.6-0.3-0.9-0.3c0.6-0.1,1.3-0.3,1.9-0.5c1.8-0.8,3.2-2.2,3.9-4c0.5-0.2,1.1-0.4,1.6-0.6c0.3-0.1,0.5-0.3,0.8-0.4
		c0.1,0.1,0.3,0.2,0.7,0.5s0.6,0.3,0.3,0.5c-7.4,6.6-13.9,14.2-19.2,22.6c-0.1,0.1-0.2,0.1-0.5,0.1c-3.2-0.2-5,3.6-3.6,7.2
		c-0.5,0.9-1.1,1.6-1.8,2.3c-0.1,0.1-0.4,0.6,0.1,0.5c0.8-0.1,1.7-1.3,2.2-1.8c0.2,0.2,0.9,0.8,0.6,1.2c-1.7,1.7-3.6,3.1-5.7,4.2
		c-1,0.5,1.7,0.8,6.4-3.4c0.3-0.2,0.6,1,1,1.5c-0.8,2.6,1.2,7.7,0.9,9.3c0,0.6-0.5,1.1-1.2,1.1c-4.6,0.1-5.1-0.1-7.4,0.6
		c-1.1,0.3-0.8,1,0,0.8s1.9-0.6,6.9-0.3c1.2,0.1,2.6-0.2,2.6-2.3c0-1.9-1.5-7.4-1-8.2c0.4,0.3,0.9,0.5,1.4,0.6
		c-0.1,1.8,2.9,7.7,1.6,10.9c-0.5,1.2-2.6,1.1-6.2,0.8C29.4,69.5,27.4,70.9,27.3,70.1L27.3,70.1z M41.5,74.1
		c-1.2,0.4-2.5-0.2-2.9-1.4c-0.1-0.4-0.2-0.8-0.1-1.2c0.2-0.4,1.8,0.4,2.9-0.3C42.4,70.6,42.9,73.7,41.5,74.1L41.5,74.1z M30.6,75.9
		c-0.3-1.5-0.5-4.1,0.1-4.7c0.1-0.1,2-0.4,2,0c-0.2,1.8-0.9,3.8,0.5,5.7C33.7,77.7,31,77.9,30.6,75.9z M35.2,77.6
		c-0.7-0.2-2.4-3-1-6.4c0.2-0.3,2.4-0.1,2.8,0s-0.3,2.8,2.8,4C40,75.2,39.7,78.7,35.2,77.6z M54.3,68.1c-1,3.6-1.6,5,0,8.9
		c0.2,0.5,0.4,0.9-0.1,0.8c-3.1-0.5-3.8-1-13.6-0.2c-0.7,0.1,0.2-1.4,0.1-2.3c1.2,0,2.3-0.8,2.6-2c0.4-1.8-0.9-3.1-0.7-3.3
		c1.4-2.7-0.1-5.7-1.3-10.8c-0.1-0.5,0.2-0.7,0.4-0.5c6.3,6.8,10.3,8.2,12.5,8.8C54.4,67.7,54.4,67.9,54.3,68.1z M70.5,49.4
		c-1.3,1.2-3.3,1.3-4.2,2c-0.4,0.4-0.6,1-0.2,2.1c0.3,0.6,0.4,0.7-0.5,1c-1.5,0.4-1.7,2.3-3.5,2c-0.8-0.1-0.2,0.3,0.1,0.4
		c0.7,0.1,1.4-0.1,1.9-0.6c0.4-0.5,0.9-0.9,1.4-1.2c0.6-0.2,1.2-0.2,1.2,0.2s-0.7,0.9-1,1c0.4,0.2,1.6,0.8,0.6,1.5
		c-0.8,0.5-1.8-0.2-2-0.3s-0.7-0.1-0.5,0.1c0.6,0.7,2.1,0.5,1.8,0.9c-1.4,1.9-0.3,3.1-0.7,5s-3.1,3-5.2,3.4
		c-7,1.2-13.9-4.8-17.9-9.3c0.4-0.9,0.3-2,0-1.6s-0.3,1-1.1,1.2c-1.6,0.4-2.3-2.4-2.8-2.9c-2-1.7-2.6-4.6-1.6-7c0.5-1.3,2-2,3.3-1.5
		c0.5,0.2,1,0.6,1.3,1c1.2,1.8,0.7,2.8,1.3,3.4c0.7,0.4,1.5,0.4,2.2,0c0.7-0.2,0.7,1.8,3.2,1.7c2.7-0.1,2.4-4.3,2.8-4.7
		c3.5-3.4,1.7-6.4,1.1-7.1c-0.2-0.2,0.4-1.4,0.6-1.5c1.7-0.4,3.1-1.5,3.8-3.1c0,0,3.4-0.1,4.6-2.5c0.3-0.7,1.3,0.6,3.6-1.2
		c0.1-0.1,0.4-0.1,0.5,0c0,0,0.1,0.1,0.1,0.1c1.5,3.6,2.1,4.6,2,6.4c-0.1,1.3,3.5,8.7,3.8,9.3S70.8,49.1,70.5,49.4z M62.3,36.4
		c-2,0.1-4.3,2.5-5,2.8s-0.5,0.6,0,0.4c1-0.4,2.4-1.9,4.3-2.6c1.5-0.6,1.4,0.7,2,0.6C63.8,37.8,63.4,36.4,62.3,36.4L62.3,36.4z
		 M62.7,38.4c-0.2,0,0.2,0.9-0.7,0.9c-1.9,0.1-3.3,1.9-4.5,2.4c-0.5,0.3-1,0.5-1.5,0.6c-0.2,0-0.1,0.2,0,0.2
		c4.8,0.6,6.6,0.5,6.6,0.3c0.1-0.3-0.3-0.5-0.2-0.7c0.2-0.7,0.2-1.5,0.1-2.2c-0.1-0.3,0.7-0.1,0.7-0.6C63.2,39.2,63,38.3,62.7,38.4
		L62.7,38.4z M62,42.1c-0.1,0.4-2.2,0.2-3.4,0.1c-0.3,0-0.7-0.1,0.2-0.6c0.9-0.6,1.8-1.1,2.9-1.3c0.2,0,0.3,0.1,0.3,0.2c0,0,0,0,0,0
		C62.1,41.1,62.1,41.6,62,42.1L62,42.1z M68.2,48.9c-0.8,0.2-1.6,0.6-2.4,1c-0.3,0.2-1.8,1.1-1.7-0.3c0-0.5,0.4-1.8,0.4-2.1
		c0-0.5-0.4-0.3-0.4,0c0,0.8-0.1,1.5-0.3,2.2c-0.1,0.5,0.2,1.1,0.7,1.2c0.3,0.1,0.5,0,0.8-0.1c0.9-0.6,1.9-1.1,2.9-1.4
		C68.4,49.3,68.4,48.9,68.2,48.9L68.2,48.9z M40.7,54.1c-0.3-0.1-0.2,0.5-0.6,0.4S40,54,39.4,53.3c-0.3-0.3-1.1-0.5-1.7-1.4
		c-1-1.5-0.1-4.9,1.2-4.4c0.8,0.3,0.6,2.1,0.4,3.3c-0.1,0.7,1,1.1,1.1,0.8c0.2-0.4-0.4-0.4-0.6-0.8c-0.2-0.6,1.4-3.1-0.7-3.8
		c-1.6-0.5-2.6,1.4-2.4,3.6c0.1,1.3,0.9,2.4,2.1,2.8c0.9,0.3,0.2,1.6,1.5,1.6C40.9,55.1,41,54.2,40.7,54.1z M53.2,13.5
		c0.1,0,0.1,0,0.2,0l2.6-3.3c0.1-0.1,0-0.2-0.1-0.2c0,0,0,0,0,0l-0.4-0.2c-0.1,0-0.1,0-0.2,0l-2.6,3.3c-0.1,0.1-0.1,0.2,0,0.2
		c0,0,0,0,0.1,0L53.2,13.5z M48.3,12.2l0.5,0.1c0.1,0,0.2,0,0.2-0.1l1.6-3.8c0-0.1,0-0.2-0.1-0.2c0,0,0,0,0,0L49.8,8
		c0,0-0.1,0-0.1,0.1c-0.2,0.5-1.3,3.2-1.6,3.9C48.1,12,48.2,12.1,48.3,12.2C48.2,12.2,48.3,12.2,48.3,12.2z M42.8,11.7h0.5
		c0.1,0,0.2-0.1,0.2-0.1c0,0,0,0,0,0l0.4-4c0-0.1-0.1-0.2-0.1-0.2c0,0,0,0,0,0h-0.5c-0.1,0-0.2,0.1-0.2,0.2l-0.4,4
		C42.6,11.5,42.7,11.6,42.8,11.7C42.8,11.7,42.8,11.7,42.8,11.7z M37.6,12.1L38,12c0.1,0,0.2-0.1,0.1-0.2c0,0,0,0,0,0l-0.8-4
		c0-0.1-0.1-0.1-0.2-0.1c0,0,0,0,0,0l-0.5,0.1c-0.1,0-0.1,0.1-0.1,0.2c0,0,0,0,0,0l0.8,4C37.4,12,37.5,12,37.6,12.1L37.6,12.1z
		 M32.2,13.3c0,0.1,0.1,0.1,0.2,0.1l0.4-0.2c0.1,0,0.1-0.1,0.1-0.2c0,0,0,0,0,0l-1.8-3.7c0-0.1-0.1-0.1-0.2-0.1l-0.4,0.2
		c-0.1,0-0.1,0.1-0.1,0.2c0,0,0,0,0,0L32.2,13.3z M27.2,15.6c0.1,0.1,0.1,0.1,0.2,0l0.4-0.2c0.1-0.1,0.1-0.2,0-0.2c0,0,0,0,0,0
		L25.1,12c-0.1,0-0.1,0-0.2,0l-0.4,0.2c-0.1,0.1-0.1,0.2,0,0.2c0,0,0,0,0,0L27.2,15.6z M22.4,18.9c0.1,0,0.1,0,0.2,0l0.4-0.3
		c0.1-0.1,0.1-0.2,0-0.2c0,0,0,0,0,0l-3.5-2.4c-0.1,0-0.1,0-0.2,0L19,16.3c-0.1,0.1-0.1,0.2,0,0.2c0,0,0,0,0,0L22.4,18.9z
		 M18.4,23.1c0.1,0,0.1,0,0.2,0c0.1-0.1,0.2-0.2,0.3-0.4c0.1-0.1,0.1-0.2,0-0.2c0,0,0,0-0.1,0l-4-1.5c-0.1,0-0.1,0-0.2,0l-0.3,0.4
		c-0.1,0.1,0,0.2,0,0.2c0,0,0,0,0,0L18.4,23.1z M10.9,27.5l4.3,0.6c0.1,0,0.1,0,0.2-0.1l0.2-0.4c0-0.1,0-0.2-0.1-0.2c0,0,0,0,0,0
		l-4.3-0.6c-0.1,0-0.1,0-0.2,0.1l-0.2,0.4c-0.1,0.1-0.1,0.2,0,0.2C10.8,27.4,10.8,27.5,10.9,27.5z M8.5,33.9l4.3-0.4
		c0.1,0,0.1-0.1,0.1-0.1l0.2-0.5c0-0.1,0-0.2-0.1-0.2c0,0,0,0-0.1,0l-4.3,0.4c-0.1,0-0.1,0.1-0.2,0.1l-0.1,0.5
		C8.4,33.8,8.4,33.9,8.5,33.9C8.5,33.9,8.5,33.9,8.5,33.9z M11.8,39.1l0.1-0.5c0-0.1-0.1-0.2-0.2-0.2c0,0,0,0-0.1,0l-4.2,1.5
		c-0.1,0-0.1,0.1-0.1,0.1v0.5c0,0.1,0.1,0.2,0.1,0.2c0,0,0,0,0.1,0l4.2-1.5C11.8,39.2,11.8,39.1,11.8,39.1z M11.7,44.9v-0.5
		c0-0.1-0.1-0.2-0.2-0.2c0,0-0.1,0-0.1,0l-3.8,2.5c-0.1,0-0.1,0.1-0.1,0.2c0,0.2,0,0.3,0.1,0.5c0,0.1,0.1,0.1,0.2,0.1c0,0,0,0,0.1,0
		l3.8-2.5C11.7,45,11.7,44.9,11.7,44.9z M12.6,50.7c0-0.2-0.1-0.3-0.1-0.5c0-0.1-0.1-0.1-0.2-0.1c0,0-0.1,0-0.1,0.1l-3.1,3.4
		c0,0.1,0,0.1,0,0.2l0.2,0.5c0,0.1,0.1,0.1,0.2,0.1c0,0,0,0,0.1,0l3-3.4C12.7,50.7,12.7,50.7,12.6,50.7z M14.2,55.8L12,60
		c0,0,0,0.1,0,0.2c0.1,0.2,0.2,0.3,0.3,0.5c0,0.1,0.2,0.1,0.2,0.1c0,0,0,0,0.1-0.1l2.2-4.1c0,0,0-0.1,0-0.2l-0.2-0.5
		C14.5,55.7,14.4,55.7,14.2,55.8C14.3,55.7,14.3,55.7,14.2,55.8L14.2,55.8z M17.3,60.5c-0.1-0.1-0.2-0.1-0.2,0c0,0,0,0-0.1,0.1
		l-1.2,4.9c0,0,0,0.1,0,0.2l0.4,0.4c0.1,0.1,0.2,0.1,0.2,0c0,0,0-0.1,0.1-0.1l1.2-4.8c0,0,0-0.1,0-0.1L17.3,60.5z"/>
</g>
</svg>
