<?xml version="1.0" encoding="UTF-8"?>
<svg id="Layer_2" xmlns="http://www.w3.org/2000/svg" xmlns:xlink="http://www.w3.org/1999/xlink" viewBox="0 0 566.93 566.93">
  <defs>
    <radialGradient id="radial-gradient" cx="283.46" cy="283.46" fx="283.46" fy="283.46" r="283.46" gradientUnits="userSpaceOnUse">
      <stop offset=".85" stop-color="#a7bce7"/>
      <stop offset=".92" stop-color="#a8bde7"/>
      <stop offset=".94" stop-color="#afc2e9"/>
      <stop offset=".96" stop-color="#bbcbec"/>
      <stop offset=".98" stop-color="#ccd8f1"/>
      <stop offset=".99" stop-color="#e2e8f7"/>
      <stop offset="1" stop-color="#fcfdfe"/>
      <stop offset="1" stop-color="#fff"/>
    </radialGradient>
    <radialGradient id="radial-gradient-2" cx="313.81" cy="246.78" fx="313.81" fy="246.78" r="16.05" gradientTransform="translate(78.4 591.98) rotate(-16.18) scale(1 -1)" gradientUnits="userSpaceOnUse">
      <stop offset="0" stop-color="#fff"/>
      <stop offset=".1" stop-color="#f3fafd"/>
      <stop offset=".28" stop-color="#d4eef9"/>
      <stop offset=".52" stop-color="#a2daf2"/>
      <stop offset=".8" stop-color="#5dbfe9"/>
      <stop offset="1" stop-color="#29abe2"/>
    </radialGradient>
  </defs>
  <g id="Layer_1-2" data-name="Layer_1">
    <circle cx="283.46" cy="283.46" r="283.46" style="fill: url(#radial-gradient);"/>
    <g id="eye-right">
      <ellipse id="female14-eyeball-right" cx="284.49" cy="294.37" rx="186.7" ry="182.84" transform="translate(-66.56 504.97) rotate(-76.94)" style="fill: #fff;"/>
      <circle id="female14-iris-right" cx="285.05" cy="297.78" r="104.2" style="fill: #543521;"/>
      <circle id="female14-pupil-right" cx="281.19" cy="298.26" r="49.21"/>
      <path id="female14-eyelayer-right" d="M273.47,129.89c100.35-8.68,194.42,53.55,225.78,149.07-3.38,20.26-13.51,68.5-52.58,112.41-5.79,6.27-60.79,67.06-144.73,72.85-90.7,6.27-181.88-53.07-225.78-149.55,14.96-99.38,96.97-176.09,197.31-184.77h0Z" style="fill: none; stroke: #a7bce7; stroke-miterlimit: 10; stroke-width: 96.49px;"/>
      <g>
        <g>
          <path d="M449.56,281.86c9.65,1.45,18.81,1.45,27.02-.96,8.68-3.86,14.47-7.72,23.64-12.06h.96c0,5.79-3.86,10.61-7.72,13.99-12.54,8.68-30.88,6.75-43.9,0-.96,0-.48-.96,0-.96h0Z" style="fill: #1e1a19;"/>
          <path d="M442.81,261.59c7.72-.48,15.44-2.41,22.67-6.27,6.75-4.82,10.13-8.68,17.37-13.99.48-.48.96,0,.96,0,1.45,4.82,0,9.65-2.89,13.99-9.17,10.13-25.57,10.13-37.63,7.24-.97,0-.97-.96-.48-.96h0Z" style="fill: #1e1a19;"/>
          <path d="M432.68,242.78c6.27-2.41,12.06-6.27,16.4-11.58,3.86-5.79,5.79-10.13,12.06-15.44.48-.48.96,0,.96,0,3.86,8.2-.96,16.89-8.2,20.74-6.27,4.82-13.51,7.24-21.23,6.27-.48.48-.48,0,0,0h0Z" style="fill: #1e1a19;"/>
        </g>
        <path d="M125.85,307.91c22.19-115.3,160.65-176.57,260.51-113.37,31.36,20.26,55.48,52.1,64.65,87.32l-1.93.96c-18.33-29.91-42.45-55-72.85-71.88-96.97-57.89-216.13-11.1-248.45,97.45l-1.93-.48h0Z" style="fill: #1e1a19;"/>
      </g>
    </g>
    <g id="balloon-blue">
      <path d="M315.2,284.19c.01.1.2.07.36.24.17.18.14.53.09,1.24-.06.84-.08,1.24-.2,1.33-.07.06-.15.03-.2.09-.05.08,0,.21.07.29.06.06.14.12.41.15.19.02.39.02.58,0,.34-.04.67-.14.97-.29.24-.13.37-.25.62-.51.04-.04.11-.11.11-.21,0-.12-.11-.25-.22-.26-.04,0-.08,0-.12.03-.21.06-.54-.48-.88-.95-.45-.61-.65-.72-.64-1.03.01-.28.19-.41.12-.51-.17-.2-1.09.17-1.07.39Z" style="fill: #29abe2;"/>
      <path d="M297.26,271.25c-.69-1.75-2.78-7.1-.14-12.8.39-.85,2.91-6.07,9.02-7.81,5.89-1.68,10.64,1.14,11.52,1.69,5.61,3.49,6.7,9.52,6.97,11.06.76,4.27-.32,7.59-1.1,9.97-1.29,3.95-3.19,9.8-7.84,11.11-4.62,1.3-9.28-2.63-12.25-5.14-1.79-1.51-4.55-3.9-6.19-8.08Z" style="fill: url(#radial-gradient-2);"/>
      <path d="M307.9,279.82c-.2.25-2.51-.93-4.5-2.87-2.14-2.09-3.14-4.3-3.91-6.05-.69-1.57-1.68-3.87-1.71-6.85-.02-1.14.14-2.28.47-3.37.41-1.36,1.17-2.87,1.44-2.79.04.01.15.08.06,1.32-.14,1.95-.5,3.04-.52,4.78-.02,1.35.19,1.53.31,1.58.45.16,1.08-1.12,1.53-.98.48.15.27,1.79.28,3.07.04,3.1,1.45,5.46,2.52,7.27,1.93,3.24,4.23,4.64,4.02,4.89Z" style="fill: #fff; isolation: isolate; opacity: .5;"/>
    </g>
  </g>
</svg>