<svg viewBox="0 0 216 78" xmlns="http://www.w3.org/2000/svg" fill-rule="evenodd" clip-rule="evenodd" stroke-linejoin="round" stroke-miterlimit="2"><path d="M8.437 41.749H2.203l.015 6.153-.015 13.117h19.312V57.92s-4.821.005-6.5.005H8.441V47.902m38.113 13.117v-3.104l-15.344.01v-5.2h9.095v-3.091H31.21v-4.792h15.344v-3.093H24.987v19.27h21.567zm47.029-13.405c0 .865-.371 1.73-.917 2.163-.544.434-1.409.61-2.864.61h-5.883v-5.551h5.808c.569 0 1.358.058 1.776.119a2.278 2.278 0 0 1 1.361.722c.471.462.719 1.193.719 1.937m6.841-.083c0-2.575-1.578-4.684-3.925-5.354-1.063-.283-2.225-.429-3.807-.429H77.686l.01 6.153v6.987l-.01 6.129h6.233V53.48h7.66c3.091 0 4.94-.384 6.424-1.298 1.507-.96 2.421-2.715 2.421-4.651m26.271 13.488v-19.27h-6.222v7.857h-10.721l-.019-7.857h-6.208v19.27h6.208l.019-8.068h10.721v8.068h6.222zm18.295-9.016h-7.111l3.606-6.614 3.505 6.614zm12.176 9.016l-10.395-19.27h-6.77L132.469 55.3c-.273.46-3.161 5.719-3.161 5.719h3.646l3.463-6.182H146.5l3.258 6.182m32.753-19.27h-3.217l.002 6.153v6.935l-11.884-13.088h-7.092v19.269h3.212s.022-4.245.022-4.709c-.022-.318-.022-.783-.022-1.42v-7.193l12.178 13.322h6.801V41.749zm18.518 10.267h-7.123l3.61-6.619 3.513 6.619zm12.174 9.012l-10.396-19.271h-6.778l-7.525 13.549c-.274.466-3.17 5.723-3.17 5.723h3.655l3.466-6.182h10.085l3.251 6.182M70.608 41.749h-2.745l.013 6.153v5.378c0 .778-.108 1.464-.257 2.047-.227.838-.628 1.56-1.154 2.022-.829.741-1.958 1.082-3.211 1.132-1.874-.07-3.455-.646-4.482-1.615a4.125 4.125 0 0 1-.961-1.854c-.165-.807-.229-1.566-.229-2.98V41.749H50.98s.017 4.135.017 6.153v5.776c0 2.486.495 3.929 1.803 5.313 1.333 1.394 2.992 2.14 5.632 2.489.111.021.228.021.339.035.965.146 1.953.222 2.928.222.09 0 .172-.005.26-.01.085.005.17.01.255.01 4.396 0 7.29-.954 8.943-2.997 1.211-1.48 1.531-2.75 1.531-5.932v-4.907c0-2.054.007-6.153.007-6.153h-2.087v.001z" fill="#742128" fill-rule="nonzero"/><path d="M107.599 3.166l12.766 7.301.469-.86-12.765-7.299-.47.858z" fill="#1a171b" fill-rule="nonzero"/><path fill="#1a171b" d="M119.871 9.638h.938v14.559h-.938z"/><path d="M108.04 2.287l-12.781 7.32.462.86 12.782-7.315-.463-.865z" fill="#1a171b" fill-rule="nonzero"/><path d="M95.987 9.234l24.648 14.443-.47.8-24.647-14.443.469-.8z" fill="#1a171b"/><path d="M96.107 24.407l-.468-.801 24.476-14.371.463.798-24.471 14.374z" fill="#1a171b" fill-rule="nonzero"/><path fill="#1a171b" d="M107.58 2.607h.936v28.456h-.936z"/><path d="M108.057 31.475l-12.774-7.236.464-.862 12.769 7.233-.459.865z" fill="#1a171b" fill-rule="nonzero"/><path d="M108.066 31.507l-.476-.866 12.782-7.295.471.865-12.777 7.296z" fill="#1a171b" fill-rule="nonzero"/><path fill="#1a171b" d="M95.283 9.638h.936v14.559h-.936z"/><path d="M41.156 72.305c0 2.651-2.071 3.193-3.774 3.193-1.702 0-3.773-.558-3.773-3.193v-4.32h.888v4.32c0 1.675 1.082 2.45 2.885 2.45 1.803 0 2.886-.77 2.886-2.45v-4.32h.888v4.32zM43.098 67.985h1.262l5.453 6.034v-6.034h.887v7.334h-.887l-5.867-6.547v6.547h-.848v-7.334zM52.615 67.985h.887v7.334h-.887zM55.423 67.985l3.231 6.363 3.249-6.363h.977l-3.79 7.334h-.865l-3.818-7.334h1.016zM63.812 67.985h6.53v.787H64.7v2.339h4.717v.787H64.7v2.634h5.766v.787h-6.653v-7.334zM71.654 67.985h4.237c1.167 0 2.88.257 2.88 2.048 0 1.535-1.418 1.976-2.305 2.015l2.417 3.271h-1.117l-2.355-3.248h-2.886v3.248h-.87v-7.334zm.888 3.299h3.148c1.278 0 2.233-.179 2.233-1.262s-.96-1.25-2.233-1.25h-3.148v2.512zM80.691 73.22c.419.559 1.117 1.49 3.35 1.49 1.116 0 2.667-.317 2.667-1.462 0-2.232-6.39-.268-6.39-3.243 0-1.563 1.44-2.199 3.438-2.199 1.998 0 3.125.798 3.633 1.502l-.647.524c-.302-.34-1.01-1.283-3.003-1.283-1.474 0-2.512.385-2.512 1.311 0 2.233 6.391.1 6.391 3.388 0 1.234-1.189 2.233-3.678 2.233-2.4 0-3.288-1-3.907-1.674l.658-.587zM89.014 67.985h.887v7.334h-.887zM94.595 68.772h-3.544v-.787h8.01v.787h-3.572v6.547h-.894v-6.547zM103.275 72.355l-3.779-4.37h1.156l3.07 3.583 3.064-3.583h1.161l-3.784 4.37v2.964h-.888v-2.964zM112.792 67.985h.888v6.547h5.788v.787h-6.698l.022-7.334zM128.214 72.305c0 2.651-2.07 3.193-3.773 3.193-1.702 0-3.773-.558-3.773-3.193v-4.32h.887v4.32c0 1.675 1.078 2.45 2.886 2.45 1.809 0 2.886-.77 2.886-2.45v-4.32h.887v4.32zm-5.152-6.1h.91v1.026h-.91v-1.027zm1.837 0h.91v1.026h-.905l-.005-1.027zM130.157 67.985h1.278l5.454 6.034v-6.034h.887v7.334h-.887l-5.867-6.547v6.547h-.848l-.017-7.334zM139.674 67.985h6.536v.787h-5.649v2.339h4.722v.787h-4.722v2.634h5.772v.787h-6.66v-7.334zM147.522 67.985h4.242c.837 0 2.847 0 2.847 1.92a1.589 1.589 0 0 1-1.117 1.54c.81.23 1.377.972 1.385 1.815 0 1.975-2.066 2.06-3.59 2.06h-3.75l-.017-7.335zm.887 3.126h3.12c1.028 0 2.2-.168 2.2-1.2 0-1.167-1.19-1.178-2.5-1.178h-2.792l-.028 2.378zm0 3.421h3.439c1.066 0 2.104-.184 2.104-1.3 0-1.022-.804-1.373-2.004-1.373h-3.539v2.673zM164.06 72.305c0 2.651-2.07 3.193-3.773 3.193-1.702 0-3.773-.558-3.773-3.193v-4.32h.888v4.32c0 1.675 1.082 2.45 2.885 2.45 1.803 0 2.886-.77 2.886-2.45v-4.32h.888v4.32zM166.003 67.985h4.237c1.166 0 2.885.257 2.885 2.048 0 1.535-1.423 1.976-2.31 2.015l2.416 3.271h-1.116l-2.355-3.248h-2.886v3.248h-.888l.017-7.334zm.888 3.299h3.148c1.278 0 2.232-.179 2.232-1.262s-.96-1.25-2.232-1.25h-3.148v2.512zM182.391 71.758v3.623h-.787v-1.072c-.497.558-1.295 1.189-2.947 1.189-2.841 0-4.186-1.675-4.186-3.83 0-2.522 1.708-3.862 4.175-3.862 1.747 0 3.086.787 3.633 2.015l-.747.396a3.042 3.042 0 0 0-2.914-1.674c-2.06 0-3.238 1.144-3.238 3.232 0 1.674 1.117 2.93 3.316 2.93 1.334 0 2.763-.642 2.886-2.166h-2.975v-.787l3.784.006z" fill="#1a171b" fill-rule="nonzero"/></svg>